<?xml version="1.0" encoding="utf-8" standalone="no"?>
<!DOCTYPE svg PUBLIC "-//W3C//DTD SVG 1.1//EN"
  "http://www.w3.org/Graphics/SVG/1.1/DTD/svg11.dtd">
<svg xmlns:xlink="http://www.w3.org/1999/xlink" width="1080pt" height="288pt" viewBox="0 0 1080 288" xmlns="http://www.w3.org/2000/svg" version="1.1">
 <metadata>
  <rdf:RDF xmlns:dc="http://purl.org/dc/elements/1.1/" xmlns:cc="http://creativecommons.org/ns#" xmlns:rdf="http://www.w3.org/1999/02/22-rdf-syntax-ns#">
   <cc:Work>
    <dc:type rdf:resource="http://purl.org/dc/dcmitype/StillImage"/>
    <dc:date>2022-07-07T18:45:16.836390</dc:date>
    <dc:format>image/svg+xml</dc:format>
    <dc:creator>
     <cc:Agent>
      <dc:title>Matplotlib v3.5.2, https://matplotlib.org/</dc:title>
     </cc:Agent>
    </dc:creator>
   </cc:Work>
  </rdf:RDF>
 </metadata>
 <defs>
  <style type="text/css">*{stroke-linejoin: round; stroke-linecap: butt}</style>
 </defs>
 <g id="figure_1">
  <g id="patch_1">
   <path d="M 0 288 
L 1080 288 
L 1080 0 
L 0 0 
z
" style="fill: #f0f0f0"/>
  </g>
  <g id="axes_1">
   <g id="patch_2">
    <path d="M 34.54 255.8 
L 1064.88 255.8 
L 1064.88 43.92 
L 34.54 43.92 
z
" style="fill: #f0f0f0"/>
   </g>
   <g id="matplotlib.axis_1">
    <g id="xtick_1">
     <g id="text_1">
      <!-- age -->
      <g style="fill: #262626" transform="translate(282.949453 270.544688)scale(0.11 -0.11)">
       <defs>
        <path id="ArialMT-61" d="M 2588 409 
Q 2275 144 1986 34 
Q 1697 -75 1366 -75 
Q 819 -75 525 192 
Q 231 459 231 875 
Q 231 1119 342 1320 
Q 453 1522 633 1644 
Q 813 1766 1038 1828 
Q 1203 1872 1538 1913 
Q 2219 1994 2541 2106 
Q 2544 2222 2544 2253 
Q 2544 2597 2384 2738 
Q 2169 2928 1744 2928 
Q 1347 2928 1158 2789 
Q 969 2650 878 2297 
L 328 2372 
Q 403 2725 575 2942 
Q 747 3159 1072 3276 
Q 1397 3394 1825 3394 
Q 2250 3394 2515 3294 
Q 2781 3194 2906 3042 
Q 3031 2891 3081 2659 
Q 3109 2516 3109 2141 
L 3109 1391 
Q 3109 606 3145 398 
Q 3181 191 3288 0 
L 2700 0 
Q 2613 175 2588 409 
z
M 2541 1666 
Q 2234 1541 1622 1453 
Q 1275 1403 1131 1340 
Q 988 1278 909 1158 
Q 831 1038 831 891 
Q 831 666 1001 516 
Q 1172 366 1500 366 
Q 1825 366 2078 508 
Q 2331 650 2450 897 
Q 2541 1088 2541 1459 
L 2541 1666 
z
" transform="scale(0.015625)"/>
        <path id="ArialMT-67" d="M 319 -275 
L 866 -356 
Q 900 -609 1056 -725 
Q 1266 -881 1628 -881 
Q 2019 -881 2231 -725 
Q 2444 -569 2519 -288 
Q 2563 -116 2559 434 
Q 2191 0 1641 0 
Q 956 0 581 494 
Q 206 988 206 1678 
Q 206 2153 378 2554 
Q 550 2956 876 3175 
Q 1203 3394 1644 3394 
Q 2231 3394 2613 2919 
L 2613 3319 
L 3131 3319 
L 3131 450 
Q 3131 -325 2973 -648 
Q 2816 -972 2473 -1159 
Q 2131 -1347 1631 -1347 
Q 1038 -1347 672 -1080 
Q 306 -813 319 -275 
z
M 784 1719 
Q 784 1066 1043 766 
Q 1303 466 1694 466 
Q 2081 466 2343 764 
Q 2606 1063 2606 1700 
Q 2606 2309 2336 2618 
Q 2066 2928 1684 2928 
Q 1309 2928 1046 2623 
Q 784 2319 784 1719 
z
" transform="scale(0.015625)"/>
        <path id="ArialMT-65" d="M 2694 1069 
L 3275 997 
Q 3138 488 2766 206 
Q 2394 -75 1816 -75 
Q 1088 -75 661 373 
Q 234 822 234 1631 
Q 234 2469 665 2931 
Q 1097 3394 1784 3394 
Q 2450 3394 2872 2941 
Q 3294 2488 3294 1666 
Q 3294 1616 3291 1516 
L 816 1516 
Q 847 969 1125 678 
Q 1403 388 1819 388 
Q 2128 388 2347 550 
Q 2566 713 2694 1069 
z
M 847 1978 
L 2700 1978 
Q 2663 2397 2488 2606 
Q 2219 2931 1791 2931 
Q 1403 2931 1139 2672 
Q 875 2413 847 1978 
z
" transform="scale(0.015625)"/>
       </defs>
       <use xlink:href="#ArialMT-61"/>
       <use xlink:href="#ArialMT-67" x="55.615234"/>
       <use xlink:href="#ArialMT-65" x="111.230469"/>
      </g>
     </g>
    </g>
    <g id="xtick_2">
     <g id="text_2">
      <!-- fare -->
      <g style="fill: #262626" transform="translate(797.818672 270.673594)scale(0.11 -0.11)">
       <defs>
        <path id="ArialMT-66" d="M 556 0 
L 556 2881 
L 59 2881 
L 59 3319 
L 556 3319 
L 556 3672 
Q 556 4006 616 4169 
Q 697 4388 901 4523 
Q 1106 4659 1475 4659 
Q 1713 4659 2000 4603 
L 1916 4113 
Q 1741 4144 1584 4144 
Q 1328 4144 1222 4034 
Q 1116 3925 1116 3625 
L 1116 3319 
L 1763 3319 
L 1763 2881 
L 1116 2881 
L 1116 0 
L 556 0 
z
" transform="scale(0.015625)"/>
        <path id="ArialMT-72" d="M 416 0 
L 416 3319 
L 922 3319 
L 922 2816 
Q 1116 3169 1280 3281 
Q 1444 3394 1641 3394 
Q 1925 3394 2219 3213 
L 2025 2691 
Q 1819 2813 1613 2813 
Q 1428 2813 1281 2702 
Q 1134 2591 1072 2394 
Q 978 2094 978 1738 
L 978 0 
L 416 0 
z
" transform="scale(0.015625)"/>
       </defs>
       <use xlink:href="#ArialMT-66"/>
       <use xlink:href="#ArialMT-61" x="27.783203"/>
       <use xlink:href="#ArialMT-72" x="83.398438"/>
       <use xlink:href="#ArialMT-65" x="116.699219"/>
      </g>
     </g>
    </g>
   </g>
   <g id="matplotlib.axis_2">
    <g id="ytick_1">
     <g id="line2d_1">
      <path d="M 34.54 237.401489 
L 1064.88 237.401489 
" clip-path="url(#p3bfbda2539)" style="fill: none; stroke: #cbcbcb"/>
     </g>
     <g id="text_3">
      <!-- −2 -->
      <g style="fill: #262626" transform="translate(14.998281 241.338286)scale(0.11 -0.11)">
       <defs>
        <path id="ArialMT-2212" d="M 3381 1997 
L 356 1997 
L 356 2522 
L 3381 2522 
L 3381 1997 
z
" transform="scale(0.015625)"/>
        <path id="ArialMT-32" d="M 3222 541 
L 3222 0 
L 194 0 
Q 188 203 259 391 
Q 375 700 629 1000 
Q 884 1300 1366 1694 
Q 2113 2306 2375 2664 
Q 2638 3022 2638 3341 
Q 2638 3675 2398 3904 
Q 2159 4134 1775 4134 
Q 1369 4134 1125 3890 
Q 881 3647 878 3216 
L 300 3275 
Q 359 3922 746 4261 
Q 1134 4600 1788 4600 
Q 2447 4600 2831 4234 
Q 3216 3869 3216 3328 
Q 3216 3053 3103 2787 
Q 2991 2522 2730 2228 
Q 2469 1934 1863 1422 
Q 1356 997 1212 845 
Q 1069 694 975 541 
L 3222 541 
z
" transform="scale(0.015625)"/>
       </defs>
       <use xlink:href="#ArialMT-2212"/>
       <use xlink:href="#ArialMT-32" x="58.398438"/>
      </g>
     </g>
    </g>
    <g id="ytick_2">
     <g id="line2d_2">
      <path d="M 34.54 206.05776 
L 1064.88 206.05776 
" clip-path="url(#p3bfbda2539)" style="fill: none; stroke: #cbcbcb"/>
     </g>
     <g id="text_4">
      <!-- 0 -->
      <g style="fill: #262626" transform="translate(21.422969 209.994557)scale(0.11 -0.11)">
       <defs>
        <path id="ArialMT-30" d="M 266 2259 
Q 266 3072 433 3567 
Q 600 4063 929 4331 
Q 1259 4600 1759 4600 
Q 2128 4600 2406 4451 
Q 2684 4303 2865 4023 
Q 3047 3744 3150 3342 
Q 3253 2941 3253 2259 
Q 3253 1453 3087 958 
Q 2922 463 2592 192 
Q 2263 -78 1759 -78 
Q 1097 -78 719 397 
Q 266 969 266 2259 
z
M 844 2259 
Q 844 1131 1108 757 
Q 1372 384 1759 384 
Q 2147 384 2411 759 
Q 2675 1134 2675 2259 
Q 2675 3391 2411 3762 
Q 2147 4134 1753 4134 
Q 1366 4134 1134 3806 
Q 844 3388 844 2259 
z
" transform="scale(0.015625)"/>
       </defs>
       <use xlink:href="#ArialMT-30"/>
      </g>
     </g>
    </g>
    <g id="ytick_3">
     <g id="line2d_3">
      <path d="M 34.54 174.714031 
L 1064.88 174.714031 
" clip-path="url(#p3bfbda2539)" style="fill: none; stroke: #cbcbcb"/>
     </g>
     <g id="text_5">
      <!-- 2 -->
      <g style="fill: #262626" transform="translate(21.422969 178.650828)scale(0.11 -0.11)">
       <use xlink:href="#ArialMT-32"/>
      </g>
     </g>
    </g>
    <g id="ytick_4">
     <g id="line2d_4">
      <path d="M 34.54 143.370302 
L 1064.88 143.370302 
" clip-path="url(#p3bfbda2539)" style="fill: none; stroke: #cbcbcb"/>
     </g>
     <g id="text_6">
      <!-- 4 -->
      <g style="fill: #262626" transform="translate(21.422969 147.307099)scale(0.11 -0.11)">
       <defs>
        <path id="ArialMT-34" d="M 2069 0 
L 2069 1097 
L 81 1097 
L 81 1613 
L 2172 4581 
L 2631 4581 
L 2631 1613 
L 3250 1613 
L 3250 1097 
L 2631 1097 
L 2631 0 
L 2069 0 
z
M 2069 1613 
L 2069 3678 
L 634 1613 
L 2069 1613 
z
" transform="scale(0.015625)"/>
       </defs>
       <use xlink:href="#ArialMT-34"/>
      </g>
     </g>
    </g>
    <g id="ytick_5">
     <g id="line2d_5">
      <path d="M 34.54 112.026573 
L 1064.88 112.026573 
" clip-path="url(#p3bfbda2539)" style="fill: none; stroke: #cbcbcb"/>
     </g>
     <g id="text_7">
      <!-- 6 -->
      <g style="fill: #262626" transform="translate(21.422969 115.96337)scale(0.11 -0.11)">
       <defs>
        <path id="ArialMT-36" d="M 3184 3459 
L 2625 3416 
Q 2550 3747 2413 3897 
Q 2184 4138 1850 4138 
Q 1581 4138 1378 3988 
Q 1113 3794 959 3422 
Q 806 3050 800 2363 
Q 1003 2672 1297 2822 
Q 1591 2972 1913 2972 
Q 2475 2972 2870 2558 
Q 3266 2144 3266 1488 
Q 3266 1056 3080 686 
Q 2894 316 2569 119 
Q 2244 -78 1831 -78 
Q 1128 -78 684 439 
Q 241 956 241 2144 
Q 241 3472 731 4075 
Q 1159 4600 1884 4600 
Q 2425 4600 2770 4297 
Q 3116 3994 3184 3459 
z
M 888 1484 
Q 888 1194 1011 928 
Q 1134 663 1356 523 
Q 1578 384 1822 384 
Q 2178 384 2434 671 
Q 2691 959 2691 1453 
Q 2691 1928 2437 2201 
Q 2184 2475 1800 2475 
Q 1419 2475 1153 2201 
Q 888 1928 888 1484 
z
" transform="scale(0.015625)"/>
       </defs>
       <use xlink:href="#ArialMT-36"/>
      </g>
     </g>
    </g>
    <g id="ytick_6">
     <g id="line2d_6">
      <path d="M 34.54 80.682844 
L 1064.88 80.682844 
" clip-path="url(#p3bfbda2539)" style="fill: none; stroke: #cbcbcb"/>
     </g>
     <g id="text_8">
      <!-- 8 -->
      <g style="fill: #262626" transform="translate(21.422969 84.619641)scale(0.11 -0.11)">
       <defs>
        <path id="ArialMT-38" d="M 1131 2484 
Q 781 2613 612 2850 
Q 444 3088 444 3419 
Q 444 3919 803 4259 
Q 1163 4600 1759 4600 
Q 2359 4600 2725 4251 
Q 3091 3903 3091 3403 
Q 3091 3084 2923 2848 
Q 2756 2613 2416 2484 
Q 2838 2347 3058 2040 
Q 3278 1734 3278 1309 
Q 3278 722 2862 322 
Q 2447 -78 1769 -78 
Q 1091 -78 675 323 
Q 259 725 259 1325 
Q 259 1772 486 2073 
Q 713 2375 1131 2484 
z
M 1019 3438 
Q 1019 3113 1228 2906 
Q 1438 2700 1772 2700 
Q 2097 2700 2305 2904 
Q 2513 3109 2513 3406 
Q 2513 3716 2298 3927 
Q 2084 4138 1766 4138 
Q 1444 4138 1231 3931 
Q 1019 3725 1019 3438 
z
M 838 1322 
Q 838 1081 952 856 
Q 1066 631 1291 507 
Q 1516 384 1775 384 
Q 2178 384 2440 643 
Q 2703 903 2703 1303 
Q 2703 1709 2433 1975 
Q 2163 2241 1756 2241 
Q 1359 2241 1098 1978 
Q 838 1716 838 1322 
z
" transform="scale(0.015625)"/>
       </defs>
       <use xlink:href="#ArialMT-38"/>
      </g>
     </g>
    </g>
    <g id="ytick_7">
     <g id="line2d_7">
      <path d="M 34.54 49.339115 
L 1064.88 49.339115 
" clip-path="url(#p3bfbda2539)" style="fill: none; stroke: #cbcbcb"/>
     </g>
     <g id="text_9">
      <!-- 10 -->
      <g style="fill: #262626" transform="translate(15.305938 53.275912)scale(0.11 -0.11)">
       <defs>
        <path id="ArialMT-31" d="M 2384 0 
L 1822 0 
L 1822 3584 
Q 1619 3391 1289 3197 
Q 959 3003 697 2906 
L 697 3450 
Q 1169 3672 1522 3987 
Q 1875 4303 2022 4600 
L 2384 4600 
L 2384 0 
z
" transform="scale(0.015625)"/>
       </defs>
       <use xlink:href="#ArialMT-31"/>
       <use xlink:href="#ArialMT-30" x="55.615234"/>
      </g>
     </g>
    </g>
   </g>
   <g id="PolyCollection_1">
    <defs>
     <path id="mac752728ad" d="M 294.012521 -41.830909 
L 290.237479 -41.830909 
L 288.754741 -42.865338 
L 286.483218 -43.899768 
L 283.261974 -44.934197 
L 279.042288 -45.968626 
L 273.951452 -47.003055 
L 268.320106 -48.037484 
L 262.6486 -49.071914 
L 257.509446 -50.106343 
L 253.411885 -51.140772 
L 250.675353 -52.175201 
L 249.357758 -53.209631 
L 249.26042 -54.24406 
L 249.996702 -55.278489 
L 251.084935 -56.312918 
L 252.02238 -57.347347 
L 252.316197 -58.381777 
L 251.477456 -59.416206 
L 249.007877 -60.450635 
L 244.41395 -61.485064 
L 237.267667 -62.519494 
L 227.306029 -63.553923 
L 214.536522 -64.588352 
L 199.305273 -65.622781 
L 182.294169 -66.65721 
L 164.438813 -67.69164 
L 146.789019 -68.726069 
L 130.353079 -69.760498 
L 115.967494 -70.794927 
L 104.217125 -71.829357 
L 95.408788 -72.863786 
L 89.58692 -73.898215 
L 86.578223 -74.932644 
L 86.057 -75.967073 
L 87.624383 -77.001503 
L 90.888354 -78.035932 
L 95.523596 -79.070361 
L 101.291387 -80.10479 
L 108.015099 -81.13922 
L 115.529086 -82.173649 
L 123.632902 -83.208078 
L 132.078007 -84.242507 
L 140.592819 -85.276937 
L 148.928834 -86.311366 
L 156.900796 -87.345795 
L 164.401949 -88.380224 
L 171.392646 -89.414653 
L 177.874105 -90.449083 
L 183.861873 -91.483512 
L 189.368429 -92.517941 
L 194.398052 -93.55237 
L 198.953487 -94.5868 
L 203.051736 -95.621229 
L 206.74321 -96.655658 
L 210.125093 -97.690087 
L 213.339544 -98.724516 
L 216.552327 -99.758946 
L 219.91614 -100.793375 
L 223.530697 -101.827804 
L 227.414511 -102.862233 
L 231.49958 -103.896663 
L 235.651463 -104.931092 
L 239.707167 -105.965521 
L 243.516497 -106.99995 
L 246.972717 -108.034379 
L 250.025326 -109.068809 
L 252.677348 -110.103238 
L 254.975612 -111.137667 
L 257.001649 -112.172096 
L 258.864686 -113.206526 
L 260.692299 -114.240955 
L 262.613413 -115.275384 
L 264.732989 -116.309813 
L 267.104606 -117.344242 
L 269.711374 -118.378672 
L 272.464539 -119.413101 
L 275.223169 -120.44753 
L 277.830085 -121.481959 
L 280.152408 -122.516389 
L 282.112772 -123.550818 
L 283.700791 -124.585247 
L 284.962527 -125.619676 
L 285.974665 -126.654105 
L 286.815469 -127.688535 
L 287.543886 -128.722964 
L 288.192341 -129.757393 
L 288.771664 -130.791822 
L 289.281988 -131.826252 
L 289.723026 -132.860681 
L 290.099738 -133.89511 
L 290.422745 -134.929539 
L 290.705197 -135.963969 
L 290.958593 -136.998398 
L 291.189684 -138.032827 
L 291.399635 -139.067256 
L 291.585451 -140.101685 
L 291.742738 -141.136115 
L 291.868461 -142.170544 
L 291.962606 -143.204973 
L 292.028342 -144.239402 
L 292.221658 -144.239402 
L 292.221658 -144.239402 
L 292.287394 -143.204973 
L 292.381539 -142.170544 
L 292.507262 -141.136115 
L 292.664549 -140.101685 
L 292.850365 -139.067256 
L 293.060316 -138.032827 
L 293.291407 -136.998398 
L 293.544803 -135.963969 
L 293.827255 -134.929539 
L 294.150262 -133.89511 
L 294.526974 -132.860681 
L 294.968012 -131.826252 
L 295.478336 -130.791822 
L 296.057659 -129.757393 
L 296.706114 -128.722964 
L 297.434531 -127.688535 
L 298.275335 -126.654105 
L 299.287473 -125.619676 
L 300.549209 -124.585247 
L 302.137228 -123.550818 
L 304.097592 -122.516389 
L 306.419915 -121.481959 
L 309.026831 -120.44753 
L 311.785461 -119.413101 
L 314.538626 -118.378672 
L 317.145394 -117.344242 
L 319.517011 -116.309813 
L 321.636587 -115.275384 
L 323.557701 -114.240955 
L 325.385314 -113.206526 
L 327.248351 -112.172096 
L 329.274388 -111.137667 
L 331.572652 -110.103238 
L 334.224674 -109.068809 
L 337.277283 -108.034379 
L 340.733503 -106.99995 
L 344.542833 -105.965521 
L 348.598537 -104.931092 
L 352.75042 -103.896663 
L 356.835489 -102.862233 
L 360.719303 -101.827804 
L 364.33386 -100.793375 
L 367.697673 -99.758946 
L 370.910456 -98.724516 
L 374.124907 -97.690087 
L 377.50679 -96.655658 
L 381.198264 -95.621229 
L 385.296513 -94.5868 
L 389.851948 -93.55237 
L 394.881571 -92.517941 
L 400.388127 -91.483512 
L 406.375895 -90.449083 
L 412.857354 -89.414653 
L 419.848051 -88.380224 
L 427.349204 -87.345795 
L 435.321166 -86.311366 
L 443.657181 -85.276937 
L 452.171993 -84.242507 
L 460.617098 -83.208078 
L 468.720914 -82.173649 
L 476.234901 -81.13922 
L 482.958613 -80.10479 
L 488.726404 -79.070361 
L 493.361646 -78.035932 
L 496.625617 -77.001503 
L 498.193 -75.967073 
L 497.671777 -74.932644 
L 494.66308 -73.898215 
L 488.841212 -72.863786 
L 480.032875 -71.829357 
L 468.282506 -70.794927 
L 453.896921 -69.760498 
L 437.460981 -68.726069 
L 419.811187 -67.69164 
L 401.955831 -66.65721 
L 384.944727 -65.622781 
L 369.713478 -64.588352 
L 356.943971 -63.553923 
L 346.982333 -62.519494 
L 339.83605 -61.485064 
L 335.242123 -60.450635 
L 332.772544 -59.416206 
L 331.933803 -58.381777 
L 332.22762 -57.347347 
L 333.165065 -56.312918 
L 334.253298 -55.278489 
L 334.98958 -54.24406 
L 334.892242 -53.209631 
L 333.574647 -52.175201 
L 330.838115 -51.140772 
L 326.740554 -50.106343 
L 321.6014 -49.071914 
L 315.929894 -48.037484 
L 310.298548 -47.003055 
L 305.207712 -45.968626 
L 300.988026 -44.934197 
L 297.766782 -43.899768 
L 295.495259 -42.865338 
L 294.012521 -41.830909 
z
" style="stroke: #404040; stroke-width: 3"/>
    </defs>
    <g clip-path="url(#p3bfbda2539)">
     <use xlink:href="#mac752728ad" x="0" y="288" style="fill: #1b86ba; stroke: #404040; stroke-width: 3"/>
    </g>
   </g>
   <g id="PolyCollection_2">
    <defs>
     <path id="mfab576b6e0" d="M 812.091921 -64.399242 
L 802.498079 -64.399242 
L 792.850502 -66.116918 
L 771.517365 -67.834593 
L 734.293283 -69.552268 
L 684.1606 -71.269943 
L 634.48268 -72.987619 
L 603.276205 -74.705294 
L 601.227 -76.422969 
L 624.977962 -78.140644 
L 661.89205 -79.85832 
L 699.497871 -81.575995 
L 730.47896 -83.29367 
L 752.380364 -85.011345 
L 765.893983 -86.729021 
L 773.376733 -88.446696 
L 777.401489 -90.164371 
L 779.809645 -91.882046 
L 781.756398 -93.599721 
L 784.112393 -95.317397 
L 787.399416 -97.035072 
L 791.440183 -98.752747 
L 795.428456 -100.470422 
L 798.535302 -102.188098 
L 800.467816 -103.905773 
L 801.478661 -105.623448 
L 801.956143 -107.341123 
L 802.11261 -109.058799 
L 802.032551 -110.776474 
L 801.851981 -112.494149 
L 801.774779 -114.211824 
L 801.959538 -115.9295 
L 802.459372 -117.647175 
L 803.237197 -119.36485 
L 804.185181 -121.082525 
L 805.147083 -122.800201 
L 805.964031 -124.517876 
L 806.516178 -126.235551 
L 806.729183 -127.953226 
L 806.559521 -129.670901 
L 806.006716 -131.388577 
L 805.17068 -133.106252 
L 804.287025 -134.823927 
L 803.654123 -136.541602 
L 803.478143 -138.259278 
L 803.758328 -139.976953 
L 804.286831 -141.694628 
L 804.7472 -143.412303 
L 804.867082 -145.129979 
L 804.570187 -146.847654 
L 804.051307 -148.565329 
L 803.696782 -150.283004 
L 803.842234 -152.00068 
L 804.52455 -153.718355 
L 805.464988 -155.43603 
L 806.30761 -157.153705 
L 806.861646 -158.87138 
L 807.140649 -160.589056 
L 807.250442 -162.306731 
L 807.284583 -164.024406 
L 807.293028 -165.742081 
L 807.294698 -167.459757 
L 807.294963 -169.177432 
L 807.294996 -170.895107 
L 807.295 -172.612782 
L 807.295 -174.330458 
L 807.295 -176.048133 
L 807.295 -177.765808 
L 807.295 -179.483483 
L 807.295 -181.201159 
L 807.295 -182.918834 
L 807.295 -184.636509 
L 807.295 -186.354184 
L 807.295 -188.07186 
L 807.295 -189.789535 
L 807.295 -191.50721 
L 807.295 -193.224885 
L 807.295 -194.94256 
L 807.295 -196.660236 
L 807.295 -198.377911 
L 807.295 -200.095586 
L 807.295 -201.813261 
L 807.295 -203.530937 
L 807.295 -205.248612 
L 807.294999 -206.966287 
L 807.294994 -208.683962 
L 807.29495 -210.401638 
L 807.29465 -212.119313 
L 807.293026 -213.836988 
L 807.286004 -215.554663 
L 807.261827 -217.272339 
L 807.196043 -218.990014 
L 807.056192 -220.707689 
L 806.828781 -222.425364 
L 806.558672 -224.143039 
L 806.354208 -225.860715 
L 806.322574 -227.57839 
L 806.48187 -229.296065 
L 806.744948 -231.01374 
L 806.993985 -232.731416 
L 807.161736 -234.449091 
L 807.428264 -234.449091 
L 807.428264 -234.449091 
L 807.596015 -232.731416 
L 807.845052 -231.01374 
L 808.10813 -229.296065 
L 808.267426 -227.57839 
L 808.235792 -225.860715 
L 808.031328 -224.143039 
L 807.761219 -222.425364 
L 807.533808 -220.707689 
L 807.393957 -218.990014 
L 807.328173 -217.272339 
L 807.303996 -215.554663 
L 807.296974 -213.836988 
L 807.29535 -212.119313 
L 807.29505 -210.401638 
L 807.295006 -208.683962 
L 807.295001 -206.966287 
L 807.295 -205.248612 
L 807.295 -203.530937 
L 807.295 -201.813261 
L 807.295 -200.095586 
L 807.295 -198.377911 
L 807.295 -196.660236 
L 807.295 -194.94256 
L 807.295 -193.224885 
L 807.295 -191.50721 
L 807.295 -189.789535 
L 807.295 -188.07186 
L 807.295 -186.354184 
L 807.295 -184.636509 
L 807.295 -182.918834 
L 807.295 -181.201159 
L 807.295 -179.483483 
L 807.295 -177.765808 
L 807.295 -176.048133 
L 807.295 -174.330458 
L 807.295 -172.612782 
L 807.295004 -170.895107 
L 807.295037 -169.177432 
L 807.295302 -167.459757 
L 807.296972 -165.742081 
L 807.305417 -164.024406 
L 807.339558 -162.306731 
L 807.449351 -160.589056 
L 807.728354 -158.87138 
L 808.28239 -157.153705 
L 809.125012 -155.43603 
L 810.06545 -153.718355 
L 810.747766 -152.00068 
L 810.893218 -150.283004 
L 810.538693 -148.565329 
L 810.019813 -146.847654 
L 809.722918 -145.129979 
L 809.8428 -143.412303 
L 810.303169 -141.694628 
L 810.831672 -139.976953 
L 811.111857 -138.259278 
L 810.935877 -136.541602 
L 810.302975 -134.823927 
L 809.41932 -133.106252 
L 808.583284 -131.388577 
L 808.030479 -129.670901 
L 807.860817 -127.953226 
L 808.073822 -126.235551 
L 808.625969 -124.517876 
L 809.442917 -122.800201 
L 810.404819 -121.082525 
L 811.352803 -119.36485 
L 812.130628 -117.647175 
L 812.630462 -115.9295 
L 812.815221 -114.211824 
L 812.738019 -112.494149 
L 812.557449 -110.776474 
L 812.47739 -109.058799 
L 812.633857 -107.341123 
L 813.111339 -105.623448 
L 814.122184 -103.905773 
L 816.054698 -102.188098 
L 819.161544 -100.470422 
L 823.149817 -98.752747 
L 827.190584 -97.035072 
L 830.477607 -95.317397 
L 832.833602 -93.599721 
L 834.780355 -91.882046 
L 837.188511 -90.164371 
L 841.213267 -88.446696 
L 848.696017 -86.729021 
L 862.209636 -85.011345 
L 884.11104 -83.29367 
L 915.092129 -81.575995 
L 952.69795 -79.85832 
L 989.612038 -78.140644 
L 1013.363 -76.422969 
L 1011.313795 -74.705294 
L 980.10732 -72.987619 
L 930.4294 -71.269943 
L 880.296717 -69.552268 
L 843.072635 -67.834593 
L 821.739498 -66.116918 
L 812.091921 -64.399242 
z
" style="stroke: #404040; stroke-width: 3"/>
    </defs>
    <g clip-path="url(#p3bfbda2539)">
     <use xlink:href="#mfab576b6e0" x="0" y="288" style="fill: #e36149; stroke: #404040; stroke-width: 3"/>
    </g>
   </g>
   <g id="line2d_8">
    <path d="M 292.125 238.366401 
L 292.125 166.785552 
" clip-path="url(#p3bfbda2539)" style="fill: none; stroke: #404040; stroke-width: 3"/>
   </g>
   <g id="line2d_9">
    <path d="M 292.125 215.714258 
L 292.125 196.142776 
" clip-path="url(#p3bfbda2539)" style="fill: none; stroke: #404040; stroke-width: 9"/>
   </g>
   <g id="line2d_10">
    <path d="M 807.295 216.139207 
L 807.295 196.458036 
" clip-path="url(#p3bfbda2539)" style="fill: none; stroke: #404040; stroke-width: 3"/>
   </g>
   <g id="line2d_11">
    <path d="M 807.295 213.748459 
L 807.295 206.669535 
" clip-path="url(#p3bfbda2539)" style="fill: none; stroke: #404040; stroke-width: 9"/>
   </g>
   <g id="patch_3">
    <path d="M 34.54 255.8 
L 34.54 43.92 
" style="fill: none; stroke: #f0f0f0; stroke-width: 3; stroke-linejoin: miter; stroke-linecap: square"/>
   </g>
   <g id="patch_4">
    <path d="M 1064.88 255.8 
L 1064.88 43.92 
" style="fill: none; stroke: #f0f0f0; stroke-width: 3; stroke-linejoin: miter; stroke-linecap: square"/>
   </g>
   <g id="patch_5">
    <path d="M 34.54 255.8 
L 1064.88 255.8 
" style="fill: none; stroke: #f0f0f0; stroke-width: 3; stroke-linejoin: miter; stroke-linecap: square"/>
   </g>
   <g id="patch_6">
    <path d="M 34.54 43.92 
L 1064.88 43.92 
" style="fill: none; stroke: #f0f0f0; stroke-width: 3; stroke-linejoin: miter; stroke-linecap: square"/>
   </g>
   <g id="PathCollection_1">
    <defs>
     <path id="m27c0e38d2e" d="M 0 3 
C 0.795609 3 1.55874 2.683901 2.12132 2.12132 
C 2.683901 1.55874 3 0.795609 3 0 
C 3 -0.795609 2.683901 -1.55874 2.12132 -2.12132 
C 1.55874 -2.683901 0.795609 -3 0 -3 
C -0.795609 -3 -1.55874 -2.683901 -2.12132 -2.12132 
C -2.683901 -1.55874 -3 -0.795609 -3 0 
C -3 0.795609 -2.683901 1.55874 -2.12132 2.12132 
C -1.55874 2.683901 -0.795609 3 0 3 
z
" style="stroke: #404040; stroke-width: 0.5"/>
    </defs>
    <g clip-path="url(#p3bfbda2539)">
     <use xlink:href="#m27c0e38d2e" x="292.125" y="208.103126" style="fill: #ffffff; stroke: #404040; stroke-width: 0.5"/>
    </g>
   </g>
   <g id="PathCollection_2">
    <g clip-path="url(#p3bfbda2539)">
     <use xlink:href="#m27c0e38d2e" x="807.295" y="211.762659" style="fill: #ffffff; stroke: #404040; stroke-width: 0.5"/>
    </g>
   </g>
  </g>
  <g id="text_10">
   <!-- Violin Plot of all Continuous Variables -->
   <g style="fill: #262626" transform="translate(416.035547 16.496719)scale(0.15 -0.15)">
    <defs>
     <path id="ArialMT-56" d="M 1803 0 
L 28 4581 
L 684 4581 
L 1875 1253 
Q 2019 853 2116 503 
Q 2222 878 2363 1253 
L 3600 4581 
L 4219 4581 
L 2425 0 
L 1803 0 
z
" transform="scale(0.015625)"/>
     <path id="ArialMT-69" d="M 425 3934 
L 425 4581 
L 988 4581 
L 988 3934 
L 425 3934 
z
M 425 0 
L 425 3319 
L 988 3319 
L 988 0 
L 425 0 
z
" transform="scale(0.015625)"/>
     <path id="ArialMT-6f" d="M 213 1659 
Q 213 2581 725 3025 
Q 1153 3394 1769 3394 
Q 2453 3394 2887 2945 
Q 3322 2497 3322 1706 
Q 3322 1066 3130 698 
Q 2938 331 2570 128 
Q 2203 -75 1769 -75 
Q 1072 -75 642 372 
Q 213 819 213 1659 
z
M 791 1659 
Q 791 1022 1069 705 
Q 1347 388 1769 388 
Q 2188 388 2466 706 
Q 2744 1025 2744 1678 
Q 2744 2294 2464 2611 
Q 2184 2928 1769 2928 
Q 1347 2928 1069 2612 
Q 791 2297 791 1659 
z
" transform="scale(0.015625)"/>
     <path id="ArialMT-6c" d="M 409 0 
L 409 4581 
L 972 4581 
L 972 0 
L 409 0 
z
" transform="scale(0.015625)"/>
     <path id="ArialMT-6e" d="M 422 0 
L 422 3319 
L 928 3319 
L 928 2847 
Q 1294 3394 1984 3394 
Q 2284 3394 2536 3286 
Q 2788 3178 2913 3003 
Q 3038 2828 3088 2588 
Q 3119 2431 3119 2041 
L 3119 0 
L 2556 0 
L 2556 2019 
Q 2556 2363 2490 2533 
Q 2425 2703 2258 2804 
Q 2091 2906 1866 2906 
Q 1506 2906 1245 2678 
Q 984 2450 984 1813 
L 984 0 
L 422 0 
z
" transform="scale(0.015625)"/>
     <path id="ArialMT-20" transform="scale(0.015625)"/>
     <path id="ArialMT-50" d="M 494 0 
L 494 4581 
L 2222 4581 
Q 2678 4581 2919 4538 
Q 3256 4481 3484 4323 
Q 3713 4166 3852 3881 
Q 3991 3597 3991 3256 
Q 3991 2672 3619 2267 
Q 3247 1863 2275 1863 
L 1100 1863 
L 1100 0 
L 494 0 
z
M 1100 2403 
L 2284 2403 
Q 2872 2403 3119 2622 
Q 3366 2841 3366 3238 
Q 3366 3525 3220 3729 
Q 3075 3934 2838 4000 
Q 2684 4041 2272 4041 
L 1100 4041 
L 1100 2403 
z
" transform="scale(0.015625)"/>
     <path id="ArialMT-74" d="M 1650 503 
L 1731 6 
Q 1494 -44 1306 -44 
Q 1000 -44 831 53 
Q 663 150 594 308 
Q 525 466 525 972 
L 525 2881 
L 113 2881 
L 113 3319 
L 525 3319 
L 525 4141 
L 1084 4478 
L 1084 3319 
L 1650 3319 
L 1650 2881 
L 1084 2881 
L 1084 941 
Q 1084 700 1114 631 
Q 1144 563 1211 522 
Q 1278 481 1403 481 
Q 1497 481 1650 503 
z
" transform="scale(0.015625)"/>
     <path id="ArialMT-43" d="M 3763 1606 
L 4369 1453 
Q 4178 706 3683 314 
Q 3188 -78 2472 -78 
Q 1731 -78 1267 223 
Q 803 525 561 1097 
Q 319 1669 319 2325 
Q 319 3041 592 3573 
Q 866 4106 1370 4382 
Q 1875 4659 2481 4659 
Q 3169 4659 3637 4309 
Q 4106 3959 4291 3325 
L 3694 3184 
Q 3534 3684 3231 3912 
Q 2928 4141 2469 4141 
Q 1941 4141 1586 3887 
Q 1231 3634 1087 3207 
Q 944 2781 944 2328 
Q 944 1744 1114 1308 
Q 1284 872 1643 656 
Q 2003 441 2422 441 
Q 2931 441 3284 734 
Q 3638 1028 3763 1606 
z
" transform="scale(0.015625)"/>
     <path id="ArialMT-75" d="M 2597 0 
L 2597 488 
Q 2209 -75 1544 -75 
Q 1250 -75 995 37 
Q 741 150 617 320 
Q 494 491 444 738 
Q 409 903 409 1263 
L 409 3319 
L 972 3319 
L 972 1478 
Q 972 1038 1006 884 
Q 1059 663 1231 536 
Q 1403 409 1656 409 
Q 1909 409 2131 539 
Q 2353 669 2445 892 
Q 2538 1116 2538 1541 
L 2538 3319 
L 3100 3319 
L 3100 0 
L 2597 0 
z
" transform="scale(0.015625)"/>
     <path id="ArialMT-73" d="M 197 991 
L 753 1078 
Q 800 744 1014 566 
Q 1228 388 1613 388 
Q 2000 388 2187 545 
Q 2375 703 2375 916 
Q 2375 1106 2209 1216 
Q 2094 1291 1634 1406 
Q 1016 1563 777 1677 
Q 538 1791 414 1992 
Q 291 2194 291 2438 
Q 291 2659 392 2848 
Q 494 3038 669 3163 
Q 800 3259 1026 3326 
Q 1253 3394 1513 3394 
Q 1903 3394 2198 3281 
Q 2494 3169 2634 2976 
Q 2775 2784 2828 2463 
L 2278 2388 
Q 2241 2644 2061 2787 
Q 1881 2931 1553 2931 
Q 1166 2931 1000 2803 
Q 834 2675 834 2503 
Q 834 2394 903 2306 
Q 972 2216 1119 2156 
Q 1203 2125 1616 2013 
Q 2213 1853 2448 1751 
Q 2684 1650 2818 1456 
Q 2953 1263 2953 975 
Q 2953 694 2789 445 
Q 2625 197 2315 61 
Q 2006 -75 1616 -75 
Q 969 -75 630 194 
Q 291 463 197 991 
z
" transform="scale(0.015625)"/>
     <path id="ArialMT-62" d="M 941 0 
L 419 0 
L 419 4581 
L 981 4581 
L 981 2947 
Q 1338 3394 1891 3394 
Q 2197 3394 2470 3270 
Q 2744 3147 2920 2923 
Q 3097 2700 3197 2384 
Q 3297 2069 3297 1709 
Q 3297 856 2875 390 
Q 2453 -75 1863 -75 
Q 1275 -75 941 416 
L 941 0 
z
M 934 1684 
Q 934 1088 1097 822 
Q 1363 388 1816 388 
Q 2184 388 2453 708 
Q 2722 1028 2722 1663 
Q 2722 2313 2464 2622 
Q 2206 2931 1841 2931 
Q 1472 2931 1203 2611 
Q 934 2291 934 1684 
z
" transform="scale(0.015625)"/>
    </defs>
    <use xlink:href="#ArialMT-56"/>
    <use xlink:href="#ArialMT-69" x="64.949219"/>
    <use xlink:href="#ArialMT-6f" x="87.166016"/>
    <use xlink:href="#ArialMT-6c" x="142.78125"/>
    <use xlink:href="#ArialMT-69" x="164.998047"/>
    <use xlink:href="#ArialMT-6e" x="187.214844"/>
    <use xlink:href="#ArialMT-20" x="242.830078"/>
    <use xlink:href="#ArialMT-50" x="270.613281"/>
    <use xlink:href="#ArialMT-6c" x="337.3125"/>
    <use xlink:href="#ArialMT-6f" x="359.529297"/>
    <use xlink:href="#ArialMT-74" x="415.144531"/>
    <use xlink:href="#ArialMT-20" x="442.927734"/>
    <use xlink:href="#ArialMT-6f" x="470.710938"/>
    <use xlink:href="#ArialMT-66" x="526.326172"/>
    <use xlink:href="#ArialMT-20" x="554.109375"/>
    <use xlink:href="#ArialMT-61" x="581.892578"/>
    <use xlink:href="#ArialMT-6c" x="637.507812"/>
    <use xlink:href="#ArialMT-6c" x="659.724609"/>
    <use xlink:href="#ArialMT-20" x="681.941406"/>
    <use xlink:href="#ArialMT-43" x="709.724609"/>
    <use xlink:href="#ArialMT-6f" x="781.941406"/>
    <use xlink:href="#ArialMT-6e" x="837.556641"/>
    <use xlink:href="#ArialMT-74" x="893.171875"/>
    <use xlink:href="#ArialMT-69" x="920.955078"/>
    <use xlink:href="#ArialMT-6e" x="943.171875"/>
    <use xlink:href="#ArialMT-75" x="998.787109"/>
    <use xlink:href="#ArialMT-6f" x="1054.402344"/>
    <use xlink:href="#ArialMT-75" x="1110.017578"/>
    <use xlink:href="#ArialMT-73" x="1165.632812"/>
    <use xlink:href="#ArialMT-20" x="1215.632812"/>
    <use xlink:href="#ArialMT-56" x="1243.416016"/>
    <use xlink:href="#ArialMT-61" x="1302.740234"/>
    <use xlink:href="#ArialMT-72" x="1358.355469"/>
    <use xlink:href="#ArialMT-69" x="1391.65625"/>
    <use xlink:href="#ArialMT-61" x="1413.873047"/>
    <use xlink:href="#ArialMT-62" x="1469.488281"/>
    <use xlink:href="#ArialMT-6c" x="1525.103516"/>
    <use xlink:href="#ArialMT-65" x="1547.320312"/>
    <use xlink:href="#ArialMT-73" x="1602.935547"/>
   </g>
  </g>
 </g>
 <defs>
  <clipPath id="p3bfbda2539">
   <rect x="34.54" y="43.92" width="1030.34" height="211.88"/>
  </clipPath>
 </defs>
</svg>
