<?xml version="1.0" encoding="utf-8" standalone="no"?>
<!DOCTYPE svg PUBLIC "-//W3C//DTD SVG 1.1//EN"
  "http://www.w3.org/Graphics/SVG/1.1/DTD/svg11.dtd">
<svg xmlns:xlink="http://www.w3.org/1999/xlink" width="1080pt" height="288pt" viewBox="0 0 1080 288" xmlns="http://www.w3.org/2000/svg" version="1.1">
 <metadata>
  <rdf:RDF xmlns:dc="http://purl.org/dc/elements/1.1/" xmlns:cc="http://creativecommons.org/ns#" xmlns:rdf="http://www.w3.org/1999/02/22-rdf-syntax-ns#">
   <cc:Work>
    <dc:type rdf:resource="http://purl.org/dc/dcmitype/StillImage"/>
    <dc:date>2022-07-09T11:29:47.414060</dc:date>
    <dc:format>image/svg+xml</dc:format>
    <dc:creator>
     <cc:Agent>
      <dc:title>Matplotlib v3.5.2, https://matplotlib.org/</dc:title>
     </cc:Agent>
    </dc:creator>
   </cc:Work>
  </rdf:RDF>
 </metadata>
 <defs>
  <style type="text/css">*{stroke-linejoin: round; stroke-linecap: butt}</style>
 </defs>
 <g id="figure_1">
  <g id="patch_1">
   <path d="M 0 288 
L 1080 288 
L 1080 0 
L 0 0 
z
" style="fill: #f0f0f0"/>
  </g>
  <g id="axes_1">
   <g id="patch_2">
    <path d="M 34.54 255.8 
L 1064.88 255.8 
L 1064.88 43.92 
L 34.54 43.92 
z
" style="fill: #f0f0f0"/>
   </g>
   <g id="matplotlib.axis_1">
    <g id="xtick_1">
     <g id="text_1">
      <!-- tilpums -->
      <g style="fill: #262626" transform="translate(274.704609 270.673594)scale(0.11 -0.11)">
       <defs>
        <path id="ArialMT-74" d="M 1650 503 
L 1731 6 
Q 1494 -44 1306 -44 
Q 1000 -44 831 53 
Q 663 150 594 308 
Q 525 466 525 972 
L 525 2881 
L 113 2881 
L 113 3319 
L 525 3319 
L 525 4141 
L 1084 4478 
L 1084 3319 
L 1650 3319 
L 1650 2881 
L 1084 2881 
L 1084 941 
Q 1084 700 1114 631 
Q 1144 563 1211 522 
Q 1278 481 1403 481 
Q 1497 481 1650 503 
z
" transform="scale(0.015625)"/>
        <path id="ArialMT-69" d="M 425 3934 
L 425 4581 
L 988 4581 
L 988 3934 
L 425 3934 
z
M 425 0 
L 425 3319 
L 988 3319 
L 988 0 
L 425 0 
z
" transform="scale(0.015625)"/>
        <path id="ArialMT-6c" d="M 409 0 
L 409 4581 
L 972 4581 
L 972 0 
L 409 0 
z
" transform="scale(0.015625)"/>
        <path id="ArialMT-70" d="M 422 -1272 
L 422 3319 
L 934 3319 
L 934 2888 
Q 1116 3141 1344 3267 
Q 1572 3394 1897 3394 
Q 2322 3394 2647 3175 
Q 2972 2956 3137 2557 
Q 3303 2159 3303 1684 
Q 3303 1175 3120 767 
Q 2938 359 2589 142 
Q 2241 -75 1856 -75 
Q 1575 -75 1351 44 
Q 1128 163 984 344 
L 984 -1272 
L 422 -1272 
z
M 931 1641 
Q 931 1000 1190 694 
Q 1450 388 1819 388 
Q 2194 388 2461 705 
Q 2728 1022 2728 1688 
Q 2728 2322 2467 2637 
Q 2206 2953 1844 2953 
Q 1484 2953 1207 2617 
Q 931 2281 931 1641 
z
" transform="scale(0.015625)"/>
        <path id="ArialMT-75" d="M 2597 0 
L 2597 488 
Q 2209 -75 1544 -75 
Q 1250 -75 995 37 
Q 741 150 617 320 
Q 494 491 444 738 
Q 409 903 409 1263 
L 409 3319 
L 972 3319 
L 972 1478 
Q 972 1038 1006 884 
Q 1059 663 1231 536 
Q 1403 409 1656 409 
Q 1909 409 2131 539 
Q 2353 669 2445 892 
Q 2538 1116 2538 1541 
L 2538 3319 
L 3100 3319 
L 3100 0 
L 2597 0 
z
" transform="scale(0.015625)"/>
        <path id="ArialMT-6d" d="M 422 0 
L 422 3319 
L 925 3319 
L 925 2853 
Q 1081 3097 1340 3245 
Q 1600 3394 1931 3394 
Q 2300 3394 2536 3241 
Q 2772 3088 2869 2813 
Q 3263 3394 3894 3394 
Q 4388 3394 4653 3120 
Q 4919 2847 4919 2278 
L 4919 0 
L 4359 0 
L 4359 2091 
Q 4359 2428 4304 2576 
Q 4250 2725 4106 2815 
Q 3963 2906 3769 2906 
Q 3419 2906 3187 2673 
Q 2956 2441 2956 1928 
L 2956 0 
L 2394 0 
L 2394 2156 
Q 2394 2531 2256 2718 
Q 2119 2906 1806 2906 
Q 1569 2906 1367 2781 
Q 1166 2656 1075 2415 
Q 984 2175 984 1722 
L 984 0 
L 422 0 
z
" transform="scale(0.015625)"/>
        <path id="ArialMT-73" d="M 197 991 
L 753 1078 
Q 800 744 1014 566 
Q 1228 388 1613 388 
Q 2000 388 2187 545 
Q 2375 703 2375 916 
Q 2375 1106 2209 1216 
Q 2094 1291 1634 1406 
Q 1016 1563 777 1677 
Q 538 1791 414 1992 
Q 291 2194 291 2438 
Q 291 2659 392 2848 
Q 494 3038 669 3163 
Q 800 3259 1026 3326 
Q 1253 3394 1513 3394 
Q 1903 3394 2198 3281 
Q 2494 3169 2634 2976 
Q 2775 2784 2828 2463 
L 2278 2388 
Q 2241 2644 2061 2787 
Q 1881 2931 1553 2931 
Q 1166 2931 1000 2803 
Q 834 2675 834 2503 
Q 834 2394 903 2306 
Q 972 2216 1119 2156 
Q 1203 2125 1616 2013 
Q 2213 1853 2448 1751 
Q 2684 1650 2818 1456 
Q 2953 1263 2953 975 
Q 2953 694 2789 445 
Q 2625 197 2315 61 
Q 2006 -75 1616 -75 
Q 969 -75 630 194 
Q 291 463 197 991 
z
" transform="scale(0.015625)"/>
       </defs>
       <use xlink:href="#ArialMT-74"/>
       <use xlink:href="#ArialMT-69" x="27.783203"/>
       <use xlink:href="#ArialMT-6c" x="50"/>
       <use xlink:href="#ArialMT-70" x="72.216797"/>
       <use xlink:href="#ArialMT-75" x="127.832031"/>
       <use xlink:href="#ArialMT-6d" x="183.447266"/>
       <use xlink:href="#ArialMT-73" x="266.748047"/>
      </g>
     </g>
    </g>
    <g id="xtick_2">
     <g id="text_2">
      <!-- nobraukums -->
      <g style="fill: #262626" transform="translate(777.03125 270.673594)scale(0.11 -0.11)">
       <defs>
        <path id="ArialMT-6e" d="M 422 0 
L 422 3319 
L 928 3319 
L 928 2847 
Q 1294 3394 1984 3394 
Q 2284 3394 2536 3286 
Q 2788 3178 2913 3003 
Q 3038 2828 3088 2588 
Q 3119 2431 3119 2041 
L 3119 0 
L 2556 0 
L 2556 2019 
Q 2556 2363 2490 2533 
Q 2425 2703 2258 2804 
Q 2091 2906 1866 2906 
Q 1506 2906 1245 2678 
Q 984 2450 984 1813 
L 984 0 
L 422 0 
z
" transform="scale(0.015625)"/>
        <path id="ArialMT-6f" d="M 213 1659 
Q 213 2581 725 3025 
Q 1153 3394 1769 3394 
Q 2453 3394 2887 2945 
Q 3322 2497 3322 1706 
Q 3322 1066 3130 698 
Q 2938 331 2570 128 
Q 2203 -75 1769 -75 
Q 1072 -75 642 372 
Q 213 819 213 1659 
z
M 791 1659 
Q 791 1022 1069 705 
Q 1347 388 1769 388 
Q 2188 388 2466 706 
Q 2744 1025 2744 1678 
Q 2744 2294 2464 2611 
Q 2184 2928 1769 2928 
Q 1347 2928 1069 2612 
Q 791 2297 791 1659 
z
" transform="scale(0.015625)"/>
        <path id="ArialMT-62" d="M 941 0 
L 419 0 
L 419 4581 
L 981 4581 
L 981 2947 
Q 1338 3394 1891 3394 
Q 2197 3394 2470 3270 
Q 2744 3147 2920 2923 
Q 3097 2700 3197 2384 
Q 3297 2069 3297 1709 
Q 3297 856 2875 390 
Q 2453 -75 1863 -75 
Q 1275 -75 941 416 
L 941 0 
z
M 934 1684 
Q 934 1088 1097 822 
Q 1363 388 1816 388 
Q 2184 388 2453 708 
Q 2722 1028 2722 1663 
Q 2722 2313 2464 2622 
Q 2206 2931 1841 2931 
Q 1472 2931 1203 2611 
Q 934 2291 934 1684 
z
" transform="scale(0.015625)"/>
        <path id="ArialMT-72" d="M 416 0 
L 416 3319 
L 922 3319 
L 922 2816 
Q 1116 3169 1280 3281 
Q 1444 3394 1641 3394 
Q 1925 3394 2219 3213 
L 2025 2691 
Q 1819 2813 1613 2813 
Q 1428 2813 1281 2702 
Q 1134 2591 1072 2394 
Q 978 2094 978 1738 
L 978 0 
L 416 0 
z
" transform="scale(0.015625)"/>
        <path id="ArialMT-61" d="M 2588 409 
Q 2275 144 1986 34 
Q 1697 -75 1366 -75 
Q 819 -75 525 192 
Q 231 459 231 875 
Q 231 1119 342 1320 
Q 453 1522 633 1644 
Q 813 1766 1038 1828 
Q 1203 1872 1538 1913 
Q 2219 1994 2541 2106 
Q 2544 2222 2544 2253 
Q 2544 2597 2384 2738 
Q 2169 2928 1744 2928 
Q 1347 2928 1158 2789 
Q 969 2650 878 2297 
L 328 2372 
Q 403 2725 575 2942 
Q 747 3159 1072 3276 
Q 1397 3394 1825 3394 
Q 2250 3394 2515 3294 
Q 2781 3194 2906 3042 
Q 3031 2891 3081 2659 
Q 3109 2516 3109 2141 
L 3109 1391 
Q 3109 606 3145 398 
Q 3181 191 3288 0 
L 2700 0 
Q 2613 175 2588 409 
z
M 2541 1666 
Q 2234 1541 1622 1453 
Q 1275 1403 1131 1340 
Q 988 1278 909 1158 
Q 831 1038 831 891 
Q 831 666 1001 516 
Q 1172 366 1500 366 
Q 1825 366 2078 508 
Q 2331 650 2450 897 
Q 2541 1088 2541 1459 
L 2541 1666 
z
" transform="scale(0.015625)"/>
        <path id="ArialMT-6b" d="M 425 0 
L 425 4581 
L 988 4581 
L 988 1969 
L 2319 3319 
L 3047 3319 
L 1778 2088 
L 3175 0 
L 2481 0 
L 1384 1697 
L 988 1316 
L 988 0 
L 425 0 
z
" transform="scale(0.015625)"/>
       </defs>
       <use xlink:href="#ArialMT-6e"/>
       <use xlink:href="#ArialMT-6f" x="55.615234"/>
       <use xlink:href="#ArialMT-62" x="111.230469"/>
       <use xlink:href="#ArialMT-72" x="166.845703"/>
       <use xlink:href="#ArialMT-61" x="200.146484"/>
       <use xlink:href="#ArialMT-75" x="255.761719"/>
       <use xlink:href="#ArialMT-6b" x="311.376953"/>
       <use xlink:href="#ArialMT-75" x="361.376953"/>
       <use xlink:href="#ArialMT-6d" x="416.992188"/>
       <use xlink:href="#ArialMT-73" x="500.292969"/>
      </g>
     </g>
    </g>
   </g>
   <g id="matplotlib.axis_2">
    <g id="ytick_1">
     <g id="line2d_1">
      <path d="M 34.54 223.225867 
L 1064.88 223.225867 
" clip-path="url(#p7d294d5bb8)" style="fill: none; stroke: #cbcbcb"/>
     </g>
     <g id="text_3">
      <!-- −2 -->
      <g style="fill: #262626" transform="translate(14.998281 227.162664)scale(0.11 -0.11)">
       <defs>
        <path id="ArialMT-2212" d="M 3381 1997 
L 356 1997 
L 356 2522 
L 3381 2522 
L 3381 1997 
z
" transform="scale(0.015625)"/>
        <path id="ArialMT-32" d="M 3222 541 
L 3222 0 
L 194 0 
Q 188 203 259 391 
Q 375 700 629 1000 
Q 884 1300 1366 1694 
Q 2113 2306 2375 2664 
Q 2638 3022 2638 3341 
Q 2638 3675 2398 3904 
Q 2159 4134 1775 4134 
Q 1369 4134 1125 3890 
Q 881 3647 878 3216 
L 300 3275 
Q 359 3922 746 4261 
Q 1134 4600 1788 4600 
Q 2447 4600 2831 4234 
Q 3216 3869 3216 3328 
Q 3216 3053 3103 2787 
Q 2991 2522 2730 2228 
Q 2469 1934 1863 1422 
Q 1356 997 1212 845 
Q 1069 694 975 541 
L 3222 541 
z
" transform="scale(0.015625)"/>
       </defs>
       <use xlink:href="#ArialMT-2212"/>
       <use xlink:href="#ArialMT-32" x="58.398438"/>
      </g>
     </g>
    </g>
    <g id="ytick_2">
     <g id="line2d_2">
      <path d="M 34.54 180.140098 
L 1064.88 180.140098 
" clip-path="url(#p7d294d5bb8)" style="fill: none; stroke: #cbcbcb"/>
     </g>
     <g id="text_4">
      <!-- 0 -->
      <g style="fill: #262626" transform="translate(21.422969 184.076895)scale(0.11 -0.11)">
       <defs>
        <path id="ArialMT-30" d="M 266 2259 
Q 266 3072 433 3567 
Q 600 4063 929 4331 
Q 1259 4600 1759 4600 
Q 2128 4600 2406 4451 
Q 2684 4303 2865 4023 
Q 3047 3744 3150 3342 
Q 3253 2941 3253 2259 
Q 3253 1453 3087 958 
Q 2922 463 2592 192 
Q 2263 -78 1759 -78 
Q 1097 -78 719 397 
Q 266 969 266 2259 
z
M 844 2259 
Q 844 1131 1108 757 
Q 1372 384 1759 384 
Q 2147 384 2411 759 
Q 2675 1134 2675 2259 
Q 2675 3391 2411 3762 
Q 2147 4134 1753 4134 
Q 1366 4134 1134 3806 
Q 844 3388 844 2259 
z
" transform="scale(0.015625)"/>
       </defs>
       <use xlink:href="#ArialMT-30"/>
      </g>
     </g>
    </g>
    <g id="ytick_3">
     <g id="line2d_3">
      <path d="M 34.54 137.05433 
L 1064.88 137.05433 
" clip-path="url(#p7d294d5bb8)" style="fill: none; stroke: #cbcbcb"/>
     </g>
     <g id="text_5">
      <!-- 2 -->
      <g style="fill: #262626" transform="translate(21.422969 140.991127)scale(0.11 -0.11)">
       <use xlink:href="#ArialMT-32"/>
      </g>
     </g>
    </g>
    <g id="ytick_4">
     <g id="line2d_4">
      <path d="M 34.54 93.968561 
L 1064.88 93.968561 
" clip-path="url(#p7d294d5bb8)" style="fill: none; stroke: #cbcbcb"/>
     </g>
     <g id="text_6">
      <!-- 4 -->
      <g style="fill: #262626" transform="translate(21.422969 97.905358)scale(0.11 -0.11)">
       <defs>
        <path id="ArialMT-34" d="M 2069 0 
L 2069 1097 
L 81 1097 
L 81 1613 
L 2172 4581 
L 2631 4581 
L 2631 1613 
L 3250 1613 
L 3250 1097 
L 2631 1097 
L 2631 0 
L 2069 0 
z
M 2069 1613 
L 2069 3678 
L 634 1613 
L 2069 1613 
z
" transform="scale(0.015625)"/>
       </defs>
       <use xlink:href="#ArialMT-34"/>
      </g>
     </g>
    </g>
    <g id="ytick_5">
     <g id="line2d_5">
      <path d="M 34.54 50.882793 
L 1064.88 50.882793 
" clip-path="url(#p7d294d5bb8)" style="fill: none; stroke: #cbcbcb"/>
     </g>
     <g id="text_7">
      <!-- 6 -->
      <g style="fill: #262626" transform="translate(21.422969 54.819589)scale(0.11 -0.11)">
       <defs>
        <path id="ArialMT-36" d="M 3184 3459 
L 2625 3416 
Q 2550 3747 2413 3897 
Q 2184 4138 1850 4138 
Q 1581 4138 1378 3988 
Q 1113 3794 959 3422 
Q 806 3050 800 2363 
Q 1003 2672 1297 2822 
Q 1591 2972 1913 2972 
Q 2475 2972 2870 2558 
Q 3266 2144 3266 1488 
Q 3266 1056 3080 686 
Q 2894 316 2569 119 
Q 2244 -78 1831 -78 
Q 1128 -78 684 439 
Q 241 956 241 2144 
Q 241 3472 731 4075 
Q 1159 4600 1884 4600 
Q 2425 4600 2770 4297 
Q 3116 3994 3184 3459 
z
M 888 1484 
Q 888 1194 1011 928 
Q 1134 663 1356 523 
Q 1578 384 1822 384 
Q 2178 384 2434 671 
Q 2691 959 2691 1453 
Q 2691 1928 2437 2201 
Q 2184 2475 1800 2475 
Q 1419 2475 1153 2201 
Q 888 1928 888 1484 
z
" transform="scale(0.015625)"/>
       </defs>
       <use xlink:href="#ArialMT-36"/>
      </g>
     </g>
    </g>
   </g>
   <g id="PolyCollection_1">
    <defs>
     <path id="m9c35c33984" d="M 292.202328 -41.830909 
L 292.047672 -41.830909 
L 291.976286 -43.776547 
L 291.871398 -45.722185 
L 291.738606 -47.667824 
L 291.590445 -49.613462 
L 291.431832 -51.5591 
L 291.237252 -53.504738 
L 290.933841 -55.450376 
L 290.40576 -57.396015 
L 289.521591 -59.341653 
L 288.166251 -61.287291 
L 286.251159 -63.232929 
L 283.69269 -65.178567 
L 280.377328 -67.124206 
L 276.143347 -69.069844 
L 270.790549 -71.015482 
L 264.105586 -72.96112 
L 255.893689 -74.906758 
L 246.037498 -76.852397 
L 234.622686 -78.798035 
L 222.128595 -80.743673 
L 209.552183 -82.689311 
L 198.193576 -84.634949 
L 188.914166 -86.580588 
L 181.145709 -88.526226 
L 172.48875 -90.471864 
L 159.716352 -92.417502 
L 141.063501 -94.36314 
L 118.423 -96.308779 
L 97.628619 -98.254417 
L 86.057 -100.200055 
L 88.758212 -102.145693 
L 105.64764 -104.091331 
L 131.659339 -106.03697 
L 159.578855 -107.982608 
L 183.472751 -109.928246 
L 200.681994 -111.873884 
L 211.779927 -113.819522 
L 219.178598 -115.765161 
L 225.412634 -117.710799 
L 231.865547 -119.656437 
L 238.313132 -121.602075 
L 243.26408 -123.547713 
L 244.768414 -125.493352 
L 241.335865 -127.43899 
L 232.792256 -129.384628 
L 220.915496 -131.330266 
L 209.421136 -133.275904 
L 202.829874 -135.221543 
L 204.437166 -137.167181 
L 214.56374 -139.112819 
L 230.378335 -141.058457 
L 247.47123 -143.004096 
L 262.030249 -144.949734 
L 272.205873 -146.895372 
L 278.133933 -148.84101 
L 281.091364 -150.786648 
L 282.557617 -152.732287 
L 283.628334 -154.677925 
L 284.827705 -156.623563 
L 286.191292 -158.569201 
L 287.480242 -160.514839 
L 288.412835 -162.460478 
L 288.83122 -164.406116 
L 288.766566 -166.351754 
L 288.407707 -168.297392 
L 288.004083 -170.24303 
L 287.752695 -172.188669 
L 287.727861 -174.134307 
L 287.889068 -176.079945 
L 288.148009 -178.025583 
L 288.436388 -179.971221 
L 288.729353 -181.91686 
L 289.026873 -183.862498 
L 289.326316 -185.808136 
L 289.611371 -187.753774 
L 289.857978 -189.699412 
L 290.046083 -191.645051 
L 290.169833 -193.590689 
L 290.24349 -195.536327 
L 290.299576 -197.481965 
L 290.376934 -199.427603 
L 290.504049 -201.373242 
L 290.688384 -203.31888 
L 290.917321 -205.264518 
L 291.166076 -207.210156 
L 291.404906 -209.155794 
L 291.603575 -211.101433 
L 291.736189 -213.047071 
L 291.788307 -214.992709 
L 291.764143 -216.938347 
L 291.689365 -218.883985 
L 291.605589 -220.829624 
L 291.556114 -222.775262 
L 291.568372 -224.7209 
L 291.642998 -226.666538 
L 291.756741 -228.612176 
L 291.876998 -230.557815 
L 291.977831 -232.503453 
L 292.048052 -234.449091 
L 292.201948 -234.449091 
L 292.201948 -234.449091 
L 292.272169 -232.503453 
L 292.373002 -230.557815 
L 292.493259 -228.612176 
L 292.607002 -226.666538 
L 292.681628 -224.7209 
L 292.693886 -222.775262 
L 292.644411 -220.829624 
L 292.560635 -218.883985 
L 292.485857 -216.938347 
L 292.461693 -214.992709 
L 292.513811 -213.047071 
L 292.646425 -211.101433 
L 292.845094 -209.155794 
L 293.083924 -207.210156 
L 293.332679 -205.264518 
L 293.561616 -203.31888 
L 293.745951 -201.373242 
L 293.873066 -199.427603 
L 293.950424 -197.481965 
L 294.00651 -195.536327 
L 294.080167 -193.590689 
L 294.203917 -191.645051 
L 294.392022 -189.699412 
L 294.638629 -187.753774 
L 294.923684 -185.808136 
L 295.223127 -183.862498 
L 295.520647 -181.91686 
L 295.813612 -179.971221 
L 296.101991 -178.025583 
L 296.360932 -176.079945 
L 296.522139 -174.134307 
L 296.497305 -172.188669 
L 296.245917 -170.24303 
L 295.842293 -168.297392 
L 295.483434 -166.351754 
L 295.41878 -164.406116 
L 295.837165 -162.460478 
L 296.769758 -160.514839 
L 298.058708 -158.569201 
L 299.422295 -156.623563 
L 300.621666 -154.677925 
L 301.692383 -152.732287 
L 303.158636 -150.786648 
L 306.116067 -148.84101 
L 312.044127 -146.895372 
L 322.219751 -144.949734 
L 336.77877 -143.004096 
L 353.871665 -141.058457 
L 369.68626 -139.112819 
L 379.812834 -137.167181 
L 381.420126 -135.221543 
L 374.828864 -133.275904 
L 363.334504 -131.330266 
L 351.457744 -129.384628 
L 342.914135 -127.43899 
L 339.481586 -125.493352 
L 340.98592 -123.547713 
L 345.936868 -121.602075 
L 352.384453 -119.656437 
L 358.837366 -117.710799 
L 365.071402 -115.765161 
L 372.470073 -113.819522 
L 383.568006 -111.873884 
L 400.777249 -109.928246 
L 424.671145 -107.982608 
L 452.590661 -106.03697 
L 478.60236 -104.091331 
L 495.491788 -102.145693 
L 498.193 -100.200055 
L 486.621381 -98.254417 
L 465.827 -96.308779 
L 443.186499 -94.36314 
L 424.533648 -92.417502 
L 411.76125 -90.471864 
L 403.104291 -88.526226 
L 395.335834 -86.580588 
L 386.056424 -84.634949 
L 374.697817 -82.689311 
L 362.121405 -80.743673 
L 349.627314 -78.798035 
L 338.212502 -76.852397 
L 328.356311 -74.906758 
L 320.144414 -72.96112 
L 313.459451 -71.015482 
L 308.106653 -69.069844 
L 303.872672 -67.124206 
L 300.55731 -65.178567 
L 297.998841 -63.232929 
L 296.083749 -61.287291 
L 294.728409 -59.341653 
L 293.84424 -57.396015 
L 293.316159 -55.450376 
L 293.012748 -53.504738 
L 292.818168 -51.5591 
L 292.659555 -49.613462 
L 292.511394 -47.667824 
L 292.378602 -45.722185 
L 292.273714 -43.776547 
L 292.202328 -41.830909 
z
" style="stroke: #404040; stroke-width: 3"/>
    </defs>
    <g clip-path="url(#p7d294d5bb8)">
     <use xlink:href="#m9c35c33984" x="0" y="288" style="fill: #1b86ba; stroke: #404040; stroke-width: 3"/>
    </g>
   </g>
   <g id="PolyCollection_2">
    <defs>
     <path id="m2d60f51af9" d="M 807.949715 -45.706233 
L 806.640285 -45.706233 
L 805.950136 -47.388889 
L 804.743407 -49.071545 
L 802.811971 -50.7542 
L 799.97778 -52.436856 
L 796.156218 -54.119512 
L 791.405901 -55.802167 
L 785.937941 -57.484823 
L 780.074601 -59.167479 
L 774.172975 -60.850135 
L 768.545805 -62.53279 
L 763.407093 -64.215446 
L 758.850828 -65.898102 
L 754.854886 -67.580758 
L 751.300486 -69.263413 
L 748.005161 -70.946069 
L 744.769086 -72.628725 
L 741.4241 -74.311381 
L 737.861293 -75.994036 
L 734.014345 -77.676692 
L 729.800172 -79.359348 
L 725.0537 -81.042004 
L 719.511834 -82.724659 
L 712.881306 -84.407315 
L 704.971555 -86.089971 
L 695.822515 -87.772627 
L 685.747615 -89.455282 
L 675.255666 -91.137938 
L 664.883646 -92.820594 
L 655.02143 -94.50325 
L 645.813229 -96.185905 
L 637.183564 -97.868561 
L 628.979642 -99.551217 
L 621.166626 -101.233873 
L 613.975081 -102.916528 
L 607.90407 -104.599184 
L 603.547388 -106.28184 
L 601.317523 -107.964496 
L 601.227 -109.647151 
L 602.875247 -111.329807 
L 605.666582 -113.012463 
L 609.12874 -114.695119 
L 613.129624 -116.377774 
L 617.86285 -118.06043 
L 623.636073 -119.743086 
L 630.623955 -121.425742 
L 638.747956 -123.108397 
L 647.733685 -124.791053 
L 657.272289 -126.473709 
L 667.164692 -128.156365 
L 677.368012 -129.83902 
L 687.938711 -131.521676 
L 698.920516 -133.204332 
L 710.238925 -134.886988 
L 721.650262 -136.569643 
L 732.766759 -138.252299 
L 743.147679 -139.934955 
L 752.418296 -141.617611 
L 760.366466 -143.300266 
L 766.979121 -144.982922 
L 772.412147 -146.665578 
L 776.917879 -148.348234 
L 780.76708 -150.030889 
L 784.192595 -151.713545 
L 787.361243 -153.396201 
L 790.365155 -155.078857 
L 793.222442 -156.761512 
L 795.88543 -158.444168 
L 798.261145 -160.126824 
L 800.245792 -161.80948 
L 801.765324 -163.492135 
L 802.806791 -165.174791 
L 803.426921 -166.857447 
L 803.734776 -168.540102 
L 803.858063 -170.222758 
L 803.909957 -171.905414 
L 803.970698 -173.58807 
L 804.087393 -175.270725 
L 804.28398 -176.953381 
L 804.569408 -178.636037 
L 804.938124 -180.318693 
L 805.366593 -182.001348 
L 805.814031 -183.684004 
L 806.231403 -185.36666 
L 806.574971 -187.049316 
L 806.816863 -188.731971 
L 806.948069 -190.414627 
L 806.9753 -192.097283 
L 806.916616 -193.779939 
L 806.799133 -195.462594 
L 806.657937 -197.14525 
L 806.532598 -198.827906 
L 806.459158 -200.510562 
L 806.45973 -202.193217 
L 806.535281 -203.875873 
L 806.666339 -205.558529 
L 806.82178 -207.241185 
L 806.970976 -208.92384 
L 807.093185 -210.606496 
L 807.180662 -212.289152 
L 807.409338 -212.289152 
L 807.409338 -212.289152 
L 807.496815 -210.606496 
L 807.619024 -208.92384 
L 807.76822 -207.241185 
L 807.923661 -205.558529 
L 808.054719 -203.875873 
L 808.13027 -202.193217 
L 808.130842 -200.510562 
L 808.057402 -198.827906 
L 807.932063 -197.14525 
L 807.790867 -195.462594 
L 807.673384 -193.779939 
L 807.6147 -192.097283 
L 807.641931 -190.414627 
L 807.773137 -188.731971 
L 808.015029 -187.049316 
L 808.358597 -185.36666 
L 808.775969 -183.684004 
L 809.223407 -182.001348 
L 809.651876 -180.318693 
L 810.020592 -178.636037 
L 810.30602 -176.953381 
L 810.502607 -175.270725 
L 810.619302 -173.58807 
L 810.680043 -171.905414 
L 810.731937 -170.222758 
L 810.855224 -168.540102 
L 811.163079 -166.857447 
L 811.783209 -165.174791 
L 812.824676 -163.492135 
L 814.344208 -161.80948 
L 816.328855 -160.126824 
L 818.70457 -158.444168 
L 821.367558 -156.761512 
L 824.224845 -155.078857 
L 827.228757 -153.396201 
L 830.397405 -151.713545 
L 833.82292 -150.030889 
L 837.672121 -148.348234 
L 842.177853 -146.665578 
L 847.610879 -144.982922 
L 854.223534 -143.300266 
L 862.171704 -141.617611 
L 871.442321 -139.934955 
L 881.823241 -138.252299 
L 892.939738 -136.569643 
L 904.351075 -134.886988 
L 915.669484 -133.204332 
L 926.651289 -131.521676 
L 937.221988 -129.83902 
L 947.425308 -128.156365 
L 957.317711 -126.473709 
L 966.856315 -124.791053 
L 975.842044 -123.108397 
L 983.966045 -121.425742 
L 990.953927 -119.743086 
L 996.72715 -118.06043 
L 1001.460376 -116.377774 
L 1005.46126 -114.695119 
L 1008.923418 -113.012463 
L 1011.714753 -111.329807 
L 1013.363 -109.647151 
L 1013.272477 -107.964496 
L 1011.042612 -106.28184 
L 1006.68593 -104.599184 
L 1000.614919 -102.916528 
L 993.423374 -101.233873 
L 985.610358 -99.551217 
L 977.406436 -97.868561 
L 968.776771 -96.185905 
L 959.56857 -94.50325 
L 949.706354 -92.820594 
L 939.334334 -91.137938 
L 928.842385 -89.455282 
L 918.767485 -87.772627 
L 909.618445 -86.089971 
L 901.708694 -84.407315 
L 895.078166 -82.724659 
L 889.5363 -81.042004 
L 884.789828 -79.359348 
L 880.575655 -77.676692 
L 876.728707 -75.994036 
L 873.1659 -74.311381 
L 869.820914 -72.628725 
L 866.584839 -70.946069 
L 863.289514 -69.263413 
L 859.735114 -67.580758 
L 855.739172 -65.898102 
L 851.182907 -64.215446 
L 846.044195 -62.53279 
L 840.417025 -60.850135 
L 834.515399 -59.167479 
L 828.652059 -57.484823 
L 823.184099 -55.802167 
L 818.433782 -54.119512 
L 814.61222 -52.436856 
L 811.778029 -50.7542 
L 809.846593 -49.071545 
L 808.639864 -47.388889 
L 807.949715 -45.706233 
z
" style="stroke: #404040; stroke-width: 3"/>
    </defs>
    <g clip-path="url(#p7d294d5bb8)">
     <use xlink:href="#m2d60f51af9" x="0" y="288" style="fill: #e36149; stroke: #404040; stroke-width: 3"/>
    </g>
   </g>
   <g id="line2d_6">
    <path d="M 292.125 224.780776 
L 292.125 134.178907 
" clip-path="url(#p7d294d5bb8)" style="fill: none; stroke: #404040; stroke-width: 3"/>
   </g>
   <g id="line2d_7">
    <path d="M 292.125 193.418591 
L 292.125 169.02578 
" clip-path="url(#p7d294d5bb8)" style="fill: none; stroke: #404040; stroke-width: 9"/>
   </g>
   <g id="line2d_8">
    <path d="M 807.295 231.359514 
L 807.295 125.48276 
" clip-path="url(#p7d294d5bb8)" style="fill: none; stroke: #404040; stroke-width: 3"/>
   </g>
   <g id="line2d_9">
    <path d="M 807.295 193.834833 
L 807.295 165.920266 
" clip-path="url(#p7d294d5bb8)" style="fill: none; stroke: #404040; stroke-width: 9"/>
   </g>
   <g id="patch_3">
    <path d="M 34.54 255.8 
L 34.54 43.92 
" style="fill: none; stroke: #f0f0f0; stroke-width: 3; stroke-linejoin: miter; stroke-linecap: square"/>
   </g>
   <g id="patch_4">
    <path d="M 1064.88 255.8 
L 1064.88 43.92 
" style="fill: none; stroke: #f0f0f0; stroke-width: 3; stroke-linejoin: miter; stroke-linecap: square"/>
   </g>
   <g id="patch_5">
    <path d="M 34.54 255.8 
L 1064.88 255.8 
" style="fill: none; stroke: #f0f0f0; stroke-width: 3; stroke-linejoin: miter; stroke-linecap: square"/>
   </g>
   <g id="patch_6">
    <path d="M 34.54 43.92 
L 1064.88 43.92 
" style="fill: none; stroke: #f0f0f0; stroke-width: 3; stroke-linejoin: miter; stroke-linecap: square"/>
   </g>
   <g id="PathCollection_1">
    <defs>
     <path id="m263834012e" d="M 0 3 
C 0.795609 3 1.55874 2.683901 2.12132 2.12132 
C 2.683901 1.55874 3 0.795609 3 0 
C 3 -0.795609 2.683901 -1.55874 2.12132 -2.12132 
C 1.55874 -2.683901 0.795609 -3 0 -3 
C -0.795609 -3 -1.55874 -2.683901 -2.12132 -2.12132 
C -2.683901 -1.55874 -3 -0.795609 -3 0 
C -3 0.795609 -2.683901 1.55874 -2.12132 2.12132 
C -1.55874 2.683901 -0.795609 3 0 3 
z
" style="stroke: #404040; stroke-width: 0.5"/>
    </defs>
    <g clip-path="url(#p7d294d5bb8)">
     <use xlink:href="#m263834012e" x="292.125" y="186.449216" style="fill: #ffffff; stroke: #404040; stroke-width: 0.5"/>
    </g>
   </g>
   <g id="PathCollection_2">
    <g clip-path="url(#p7d294d5bb8)">
     <use xlink:href="#m263834012e" x="807.295" y="179.546546" style="fill: #ffffff; stroke: #404040; stroke-width: 0.5"/>
    </g>
   </g>
  </g>
  <g id="text_8">
   <!-- Violin Plot of all Continuous Variables -->
   <g style="fill: #262626" transform="translate(416.035547 16.496719)scale(0.15 -0.15)">
    <defs>
     <path id="ArialMT-56" d="M 1803 0 
L 28 4581 
L 684 4581 
L 1875 1253 
Q 2019 853 2116 503 
Q 2222 878 2363 1253 
L 3600 4581 
L 4219 4581 
L 2425 0 
L 1803 0 
z
" transform="scale(0.015625)"/>
     <path id="ArialMT-20" transform="scale(0.015625)"/>
     <path id="ArialMT-50" d="M 494 0 
L 494 4581 
L 2222 4581 
Q 2678 4581 2919 4538 
Q 3256 4481 3484 4323 
Q 3713 4166 3852 3881 
Q 3991 3597 3991 3256 
Q 3991 2672 3619 2267 
Q 3247 1863 2275 1863 
L 1100 1863 
L 1100 0 
L 494 0 
z
M 1100 2403 
L 2284 2403 
Q 2872 2403 3119 2622 
Q 3366 2841 3366 3238 
Q 3366 3525 3220 3729 
Q 3075 3934 2838 4000 
Q 2684 4041 2272 4041 
L 1100 4041 
L 1100 2403 
z
" transform="scale(0.015625)"/>
     <path id="ArialMT-66" d="M 556 0 
L 556 2881 
L 59 2881 
L 59 3319 
L 556 3319 
L 556 3672 
Q 556 4006 616 4169 
Q 697 4388 901 4523 
Q 1106 4659 1475 4659 
Q 1713 4659 2000 4603 
L 1916 4113 
Q 1741 4144 1584 4144 
Q 1328 4144 1222 4034 
Q 1116 3925 1116 3625 
L 1116 3319 
L 1763 3319 
L 1763 2881 
L 1116 2881 
L 1116 0 
L 556 0 
z
" transform="scale(0.015625)"/>
     <path id="ArialMT-43" d="M 3763 1606 
L 4369 1453 
Q 4178 706 3683 314 
Q 3188 -78 2472 -78 
Q 1731 -78 1267 223 
Q 803 525 561 1097 
Q 319 1669 319 2325 
Q 319 3041 592 3573 
Q 866 4106 1370 4382 
Q 1875 4659 2481 4659 
Q 3169 4659 3637 4309 
Q 4106 3959 4291 3325 
L 3694 3184 
Q 3534 3684 3231 3912 
Q 2928 4141 2469 4141 
Q 1941 4141 1586 3887 
Q 1231 3634 1087 3207 
Q 944 2781 944 2328 
Q 944 1744 1114 1308 
Q 1284 872 1643 656 
Q 2003 441 2422 441 
Q 2931 441 3284 734 
Q 3638 1028 3763 1606 
z
" transform="scale(0.015625)"/>
     <path id="ArialMT-65" d="M 2694 1069 
L 3275 997 
Q 3138 488 2766 206 
Q 2394 -75 1816 -75 
Q 1088 -75 661 373 
Q 234 822 234 1631 
Q 234 2469 665 2931 
Q 1097 3394 1784 3394 
Q 2450 3394 2872 2941 
Q 3294 2488 3294 1666 
Q 3294 1616 3291 1516 
L 816 1516 
Q 847 969 1125 678 
Q 1403 388 1819 388 
Q 2128 388 2347 550 
Q 2566 713 2694 1069 
z
M 847 1978 
L 2700 1978 
Q 2663 2397 2488 2606 
Q 2219 2931 1791 2931 
Q 1403 2931 1139 2672 
Q 875 2413 847 1978 
z
" transform="scale(0.015625)"/>
    </defs>
    <use xlink:href="#ArialMT-56"/>
    <use xlink:href="#ArialMT-69" x="64.949219"/>
    <use xlink:href="#ArialMT-6f" x="87.166016"/>
    <use xlink:href="#ArialMT-6c" x="142.78125"/>
    <use xlink:href="#ArialMT-69" x="164.998047"/>
    <use xlink:href="#ArialMT-6e" x="187.214844"/>
    <use xlink:href="#ArialMT-20" x="242.830078"/>
    <use xlink:href="#ArialMT-50" x="270.613281"/>
    <use xlink:href="#ArialMT-6c" x="337.3125"/>
    <use xlink:href="#ArialMT-6f" x="359.529297"/>
    <use xlink:href="#ArialMT-74" x="415.144531"/>
    <use xlink:href="#ArialMT-20" x="442.927734"/>
    <use xlink:href="#ArialMT-6f" x="470.710938"/>
    <use xlink:href="#ArialMT-66" x="526.326172"/>
    <use xlink:href="#ArialMT-20" x="554.109375"/>
    <use xlink:href="#ArialMT-61" x="581.892578"/>
    <use xlink:href="#ArialMT-6c" x="637.507812"/>
    <use xlink:href="#ArialMT-6c" x="659.724609"/>
    <use xlink:href="#ArialMT-20" x="681.941406"/>
    <use xlink:href="#ArialMT-43" x="709.724609"/>
    <use xlink:href="#ArialMT-6f" x="781.941406"/>
    <use xlink:href="#ArialMT-6e" x="837.556641"/>
    <use xlink:href="#ArialMT-74" x="893.171875"/>
    <use xlink:href="#ArialMT-69" x="920.955078"/>
    <use xlink:href="#ArialMT-6e" x="943.171875"/>
    <use xlink:href="#ArialMT-75" x="998.787109"/>
    <use xlink:href="#ArialMT-6f" x="1054.402344"/>
    <use xlink:href="#ArialMT-75" x="1110.017578"/>
    <use xlink:href="#ArialMT-73" x="1165.632812"/>
    <use xlink:href="#ArialMT-20" x="1215.632812"/>
    <use xlink:href="#ArialMT-56" x="1243.416016"/>
    <use xlink:href="#ArialMT-61" x="1302.740234"/>
    <use xlink:href="#ArialMT-72" x="1358.355469"/>
    <use xlink:href="#ArialMT-69" x="1391.65625"/>
    <use xlink:href="#ArialMT-61" x="1413.873047"/>
    <use xlink:href="#ArialMT-62" x="1469.488281"/>
    <use xlink:href="#ArialMT-6c" x="1525.103516"/>
    <use xlink:href="#ArialMT-65" x="1547.320312"/>
    <use xlink:href="#ArialMT-73" x="1602.935547"/>
   </g>
  </g>
 </g>
 <defs>
  <clipPath id="p7d294d5bb8">
   <rect x="34.54" y="43.92" width="1030.34" height="211.88"/>
  </clipPath>
 </defs>
</svg>
